<?xml version="1.0" encoding="UTF-8" standalone="no"?>
<!-- Created with Inkscape (http://www.inkscape.org/) -->

<svg
   id="svg2"
   sodipodi:docname="dog-searching.svg"
   viewBox="0 0 288.69134 246.789"
   version="1.1"
   inkscape:version="1.2.2 (732a01da63, 2022-12-09)"
   width="307.93744"
   height="263.24161"
   xmlns:inkscape="http://www.inkscape.org/namespaces/inkscape"
   xmlns:sodipodi="http://sodipodi.sourceforge.net/DTD/sodipodi-0.dtd"
   xmlns="http://www.w3.org/2000/svg"
   xmlns:svg="http://www.w3.org/2000/svg"
   xmlns:rdf="http://www.w3.org/1999/02/22-rdf-syntax-ns#"
   xmlns:cc="http://creativecommons.org/ns#"
   xmlns:dc="http://purl.org/dc/elements/1.1/">
  <defs
     id="defs21" />
  <title
     id="title2920">Dog With Ball</title>
  <sodipodi:namedview
     id="base"
     bordercolor="#666666"
     inkscape:pageshadow="2"
     inkscape:window-y="-11"
     pagecolor="#ffffff"
     inkscape:window-height="974"
     inkscape:window-maximized="1"
     inkscape:zoom="1.5253126"
     inkscape:window-x="-11"
     showgrid="false"
     borderopacity="1.0"
     inkscape:current-layer="layer1"
     inkscape:cx="250.44047"
     inkscape:cy="96.045886"
     inkscape:window-width="1920"
     inkscape:pageopacity="0.0"
     inkscape:document-units="px"
     fit-margin-top="10"
     fit-margin-left="10"
     fit-margin-right="10"
     fit-margin-bottom="10"
     inkscape:showpageshadow="2"
     inkscape:pagecheckerboard="0"
     inkscape:deskcolor="#d1d1d1" />
  <g
     id="layer1"
     inkscape:label="Layer 1"
     inkscape:groupmode="layer"
     transform="translate(-225.42205,-399.9719)">
    <path
       style="fill:#000000;stroke:#000000;stroke-width:0.52035px"
       d="m 460.76454,534.50738 c 1.8533,6.75305 -4.51881,10.74957 -9.55109,13.12029 -6.62898,3.12293 -14.787,-3.24249 -22.56718,-2.21161 -10.82957,-1.0989 -22.03664,-0.0879 -32.00901,4.3004 -17.49929,12.58677 -51.20268,0.396 -63.85634,12.55135 -8.59503,-3.33973 -7.50154,15.51528 -7.10242,16.03074 0,0 0.77072,-0.6937 1.19557,-2.84686 0.99337,-11.53444 11.01114,6.04543 8.54617,12.29828 3.87077,5.43084 12.78964,-2.75961 12.19746,-7.60692 0.0355,3.16946 1.67463,10.34281 2.91074,14.89687 -0.61032,5.22249 -3.67714,10.05783 -4.99515,15.24873 -2.06039,6.68466 -2.6028,13.00665 -10.83162,14.15707 -9.92207,7.54554 10.80862,5.73664 12.44747,-0.51966 4.24726,-5.72337 9.41823,-10.60597 12.07894,-17.40484 3.99999,-13.39843 18.76659,-9.35253 17.0502,-7.96025 -4.46727,4.428 -3.92778,10.73854 1.51893,13.94148 4.75062,2.67322 11.89075,3.02498 13.66516,1.28585 0.88715,-4.20727 -3.84841,-3.7348 -6.96817,-4.84121 -19.60838,-7.08885 32.76643,-38.92497 37.79767,-32.00225 1.46097,3.12576 2.98291,10.72666 8.09768,13.09771 7.02582,2.6858 8.17396,10.73186 14.34438,13.7085 10.11326,8.46702 9.32496,7.62524 2.43606,17.18942 -0.33308,5.27636 9.7526,3.72761 8.48353,-1.94122 0.80128,-2.82093 2.12658,-0.27664 2.65168,2.5916 0.70537,4.20049 -1.2184,8.09536 -3.6905,11.0626 -1.23122,1.47282 -2.39784,2.8097 -2.68958,4.04276 5.15524,3.05539 11.86466,-0.97159 11.04304,-6.82168 -0.15249,-3.82587 -0.0585,-7.71259 2.11166,-11.09358 3.75055,-6.38593 -5.24681,-10.63303 -8.09938,-16.15516 2.22783,7.02592 7.14283,-1.53282 4.98459,-4.67482 -3.33725,-3.84749 -9.57978,-2.08876 -4.78282,-7.20935 1.98829,-5.84161 3.52865,-11.7868 4.19575,-17.89666 1.1235,-6.86951 -8.05147,-10.61113 -6.18456,-17.15442 3.55928,-4.33237 8.82301,-7.97824 10.89073,-13.49317 4.11177,-5.97966 -1.64911,-12.05024 0.35468,-18.26772 0.27621,-7.85334 -6.69533,5.10914 -5.67427,10.57773 z"
       id="path2830"
       inkscape:connector-curvature="0"
       sodipodi:nodetypes="cscccccccccccccccccccccccccccccccccc" />
    <path
       id="path4339"
       style="fill:#959595;fill-opacity:0.28696;stroke-width:0.485057"
       inkscape:connector-curvature="0"
       d="m 466.63739,417.14366 c -8.31152,0 -15.37632,3.41019 -17.99527,8.17258 h -0.18176 c -9.03498,0 -16.35938,5.8547 -16.35938,13.07651 0,0.14357 0.006,0.28656 0.0113,0.42903 -7.33812,1.41347 -12.73553,6.17332 -12.73553,11.83026 0,6.77074 7.73134,12.25911 17.26826,12.25911 4.13128,0 7.92288,-1.03025 10.89491,-2.74812 3.76371,2.71301 8.89424,4.38263 14.5533,4.38263 3.33385,0 6.48512,-0.58287 9.28188,-1.61414 2.29212,1.01774 5.03721,1.61414 7.98638,1.61414 7.52406,0 13.71097,-3.85534 14.46236,-8.79593 1.10895,-0.54995 2.14499,-1.19401 3.09014,-1.91044 0.50378,0.0499 1.01207,0.0817 1.53372,0.0817 6.52526,0 11.81497,-4.02498 11.81497,-8.98998 0,-4.19522 -3.77661,-7.71225 -8.88408,-8.70378 -2.7706,-5.12019 -8.83989,-8.7839 -16.01849,-9.22524 -1.73648,-5.62175 -9.45969,-9.85832 -18.72278,-9.85832 z" />
    <path
       id="path4339-9"
       style="fill:#959595;fill-opacity:0.28696;stroke-width:0.442203"
       inkscape:connector-curvature="0"
       d="m 288.76402,451.56284 c -7.18737,0 -13.29663,3.27754 -15.56135,7.85468 h -0.15719 c -7.81297,0 -14.14673,5.62696 -14.14673,12.56785 0,0.13799 0.005,0.27541 0.01,0.41234 -6.34562,1.35849 -11.01302,5.93318 -11.01302,11.37008 0,6.50736 6.68566,11.78224 14.93269,11.78224 3.5725,0 6.85128,-0.99017 9.42134,-2.64122 3.25466,2.60748 7.69128,4.21216 12.58492,4.21216 2.88295,0 5.608,-0.56021 8.02648,-1.55136 1.98211,0.97815 4.35592,1.55136 6.90621,1.55136 6.50641,0 11.85652,-3.70537 12.50628,-8.45379 0.95897,-0.52856 1.85488,-1.14756 2.6722,-1.83613 0.43564,0.048 0.87518,0.0786 1.32629,0.0786 5.6427,0 10.21696,-3.8684 10.21696,-8.64028 0,-4.03203 -3.26582,-7.41225 -7.6825,-8.36521 -2.39586,-4.92102 -7.64427,-8.44221 -13.85194,-8.86639 -1.50161,-5.40307 -8.18024,-9.47484 -16.19047,-9.47484 z" />
  </g>
  <metadata
     id="metadata18">
    <rdf:RDF>
      <cc:Work>
        <dc:format>image/svg+xml</dc:format>
        <dc:type
           rdf:resource="http://purl.org/dc/dcmitype/StillImage" />
        <cc:license
           rdf:resource="http://creativecommons.org/publicdomain/zero/1.0/" />
        <dc:publisher>
          <cc:Agent
             rdf:about="http://openclipart.org/">
            <dc:title>Openclipart</dc:title>
          </cc:Agent>
        </dc:publisher>
        <dc:title>Dog With Ball</dc:title>
        <dc:date>2010-04-07T00:38:15</dc:date>
        <dc:description>Dog chasing ball.</dc:description>
        <dc:source>https://openclipart.org/detail/38731/dog-chasing-ball-by-mazeo</dc:source>
        <dc:creator>
          <cc:Agent>
            <dc:title>mazeo</dc:title>
          </cc:Agent>
        </dc:creator>
        <dc:subject>
          <rdf:Bag>
            <rdf:li>ball</rdf:li>
            <rdf:li>chase</rdf:li>
            <rdf:li>chasing</rdf:li>
            <rdf:li>dog</rdf:li>
          </rdf:Bag>
        </dc:subject>
      </cc:Work>
      <cc:License
         rdf:about="http://creativecommons.org/publicdomain/zero/1.0/">
        <cc:permits
           rdf:resource="http://creativecommons.org/ns#Reproduction" />
        <cc:permits
           rdf:resource="http://creativecommons.org/ns#Distribution" />
        <cc:permits
           rdf:resource="http://creativecommons.org/ns#DerivativeWorks" />
      </cc:License>
    </rdf:RDF>
  </metadata>
</svg>
